<mxfile host="Electron" agent="Mozilla/5.0 (Windows NT 10.0; Win64; x64) AppleWebKit/537.36 (KHTML, like Gecko) draw.io/24.7.5 Chrome/126.0.6478.183 Electron/31.3.0 Safari/537.36" version="24.7.5">
  <diagram name="Page-1" id="8EkGqibCvBHoBTu_bCx6">
    <mxGraphModel dx="395" dy="268" grid="1" gridSize="10" guides="1" tooltips="1" connect="1" arrows="1" fold="1" page="1" pageScale="1" pageWidth="850" pageHeight="1100" math="0" shadow="0">
      <root>
        <mxCell id="0" />
        <mxCell id="1" parent="0" />
        <mxCell id="61Gtb_rmeDHRGXsxD0hD-1" value="" style="verticalLabelPosition=bottom;verticalAlign=top;html=1;shape=mxgraph.basic.arc;startAngle=0;endAngle=0.25;strokeWidth=3;" vertex="1" parent="1">
          <mxGeometry x="40" y="70" width="100" height="100" as="geometry" />
        </mxCell>
        <mxCell id="61Gtb_rmeDHRGXsxD0hD-2" value="" style="verticalLabelPosition=bottom;verticalAlign=top;html=1;shape=mxgraph.basic.arc;startAngle=0;endAngle=0.25;strokeWidth=3;strokeColor=#000000;dashed=1;dashPattern=1 1;" vertex="1" parent="1">
          <mxGeometry x="10" y="40" width="160" height="160" as="geometry" />
        </mxCell>
        <mxCell id="61Gtb_rmeDHRGXsxD0hD-3" value="" style="endArrow=classic;startArrow=classic;html=1;rounded=0;entryX=0.749;entryY=0.078;entryDx=0;entryDy=0;entryPerimeter=0;endSize=3;startSize=3;jumpSize=5;exitX=0.76;exitY=0.047;exitDx=0;exitDy=0;exitPerimeter=0;" edge="1" parent="1" source="61Gtb_rmeDHRGXsxD0hD-1" target="61Gtb_rmeDHRGXsxD0hD-2">
          <mxGeometry width="50" height="50" relative="1" as="geometry">
            <mxPoint x="90" y="70" as="sourcePoint" />
            <mxPoint x="220" y="130" as="targetPoint" />
          </mxGeometry>
        </mxCell>
        <mxCell id="61Gtb_rmeDHRGXsxD0hD-4" value="w" style="text;html=1;align=center;verticalAlign=middle;whiteSpace=wrap;rounded=0;" vertex="1" parent="1">
          <mxGeometry x="100" y="50" width="30" height="20" as="geometry" />
        </mxCell>
        <mxCell id="61Gtb_rmeDHRGXsxD0hD-5" value="&lt;font style=&quot;font-size: 9px;&quot;&gt;w = 3.7 meters&lt;/font&gt;" style="text;html=1;align=center;verticalAlign=middle;whiteSpace=wrap;rounded=0;" vertex="1" parent="1">
          <mxGeometry x="120" y="20" width="90" height="20" as="geometry" />
        </mxCell>
        <mxCell id="61Gtb_rmeDHRGXsxD0hD-7" value="" style="endArrow=none;html=1;rounded=0;strokeWidth=3;strokeColor=#0000FF;" edge="1" parent="1">
          <mxGeometry width="50" height="50" relative="1" as="geometry">
            <mxPoint x="140" y="210" as="sourcePoint" />
            <mxPoint x="140" y="120" as="targetPoint" />
          </mxGeometry>
        </mxCell>
        <mxCell id="61Gtb_rmeDHRGXsxD0hD-8" value="" style="endArrow=none;html=1;rounded=0;strokeWidth=3;strokeColor=#0000FF;dashed=1;dashPattern=1 1;" edge="1" parent="1">
          <mxGeometry width="50" height="50" relative="1" as="geometry">
            <mxPoint x="170" y="210" as="sourcePoint" />
            <mxPoint x="170" y="120" as="targetPoint" />
          </mxGeometry>
        </mxCell>
        <mxCell id="61Gtb_rmeDHRGXsxD0hD-9" value="w" style="text;html=1;align=center;verticalAlign=middle;whiteSpace=wrap;rounded=0;" vertex="1" parent="1">
          <mxGeometry x="140" y="160" width="30" height="20" as="geometry" />
        </mxCell>
        <mxCell id="61Gtb_rmeDHRGXsxD0hD-11" value="" style="endArrow=classic;startArrow=classic;html=1;rounded=0;endSize=3;startSize=3;jumpSize=5;" edge="1" parent="1">
          <mxGeometry width="50" height="50" relative="1" as="geometry">
            <mxPoint x="140" y="160" as="sourcePoint" />
            <mxPoint x="170" y="160" as="targetPoint" />
          </mxGeometry>
        </mxCell>
        <mxCell id="61Gtb_rmeDHRGXsxD0hD-13" value="" style="endArrow=none;html=1;rounded=0;strokeWidth=3;" edge="1" parent="1">
          <mxGeometry width="50" height="50" relative="1" as="geometry">
            <mxPoint x="220" y="74" as="sourcePoint" />
            <mxPoint x="200" y="74" as="targetPoint" />
            <Array as="points" />
          </mxGeometry>
        </mxCell>
        <mxCell id="61Gtb_rmeDHRGXsxD0hD-14" value="" style="endArrow=none;html=1;rounded=0;strokeWidth=3;dashed=1;dashPattern=1 1;" edge="1" parent="1">
          <mxGeometry width="50" height="50" relative="1" as="geometry">
            <mxPoint x="220" y="95" as="sourcePoint" />
            <mxPoint x="200" y="95" as="targetPoint" />
            <Array as="points" />
          </mxGeometry>
        </mxCell>
        <mxCell id="61Gtb_rmeDHRGXsxD0hD-17" value="&lt;font style=&quot;font-size: 7px;&quot;&gt;Arc&lt;/font&gt;" style="text;html=1;align=center;verticalAlign=middle;whiteSpace=wrap;rounded=0;" vertex="1" parent="1">
          <mxGeometry x="215" y="67" width="60" height="10" as="geometry" />
        </mxCell>
        <mxCell id="61Gtb_rmeDHRGXsxD0hD-20" value="&lt;font style=&quot;font-size: 7px;&quot;&gt;Shifted Arc&lt;/font&gt;" style="text;html=1;align=center;verticalAlign=middle;whiteSpace=wrap;rounded=0;" vertex="1" parent="1">
          <mxGeometry x="215" y="88" width="60" height="10" as="geometry" />
        </mxCell>
        <mxCell id="61Gtb_rmeDHRGXsxD0hD-21" value="" style="endArrow=none;html=1;rounded=0;strokeWidth=3;strokeColor=#0000FF;" edge="1" parent="1">
          <mxGeometry width="50" height="50" relative="1" as="geometry">
            <mxPoint x="220" y="117" as="sourcePoint" />
            <mxPoint x="200" y="117" as="targetPoint" />
            <Array as="points" />
          </mxGeometry>
        </mxCell>
        <mxCell id="61Gtb_rmeDHRGXsxD0hD-22" value="" style="endArrow=none;html=1;rounded=0;strokeWidth=3;dashed=1;dashPattern=1 1;strokeColor=#0000FF;" edge="1" parent="1">
          <mxGeometry width="50" height="50" relative="1" as="geometry">
            <mxPoint x="220" y="138" as="sourcePoint" />
            <mxPoint x="200" y="138" as="targetPoint" />
            <Array as="points" />
          </mxGeometry>
        </mxCell>
        <mxCell id="61Gtb_rmeDHRGXsxD0hD-23" value="&lt;font style=&quot;font-size: 7px;&quot;&gt;Line&lt;/font&gt;" style="text;html=1;align=center;verticalAlign=middle;whiteSpace=wrap;rounded=0;" vertex="1" parent="1">
          <mxGeometry x="215" y="110" width="60" height="10" as="geometry" />
        </mxCell>
        <mxCell id="61Gtb_rmeDHRGXsxD0hD-24" value="&lt;span style=&quot;font-size: 7px;&quot;&gt;Shifted Line&lt;/span&gt;" style="text;html=1;align=center;verticalAlign=middle;whiteSpace=wrap;rounded=0;" vertex="1" parent="1">
          <mxGeometry x="215" y="131" width="60" height="10" as="geometry" />
        </mxCell>
      </root>
    </mxGraphModel>
  </diagram>
</mxfile>
